# xmcd CD database file
#
# Track frame offsets:
#	150
#	6627
#	25267
#	41230
#	55725
#	75845
#	93530
#	104900
#	123762
#	131152
#	140602
#	166582
#
# Disc length: 2517 seconds
#
# Revision: 0
# Processed by: cddbd v1.5.1PL2 Copyright (c) Steve Scherf et al.
# Submitted via: CDex 1.60beta1
#
DISCID=9f09d30c
DTITLE=NSP - NSP　FIRST
DYEAR=1973
DGENRE=JPop
TTITLE0=NSP Cry
TTITLE1=あせ
TTITLE2=いい
TTITLE3=おひるねの季節
TTITLE4=ボーカルなんていらないよ
TTITLE5=ちょうちょ
TTITLE6=新青春
TTITLE7=がんばれやせがえる
TTITLE8=便所虫
TTITLE9=ぼくの夏休み
TTITLE10=昨日からの逃げ道
TTITLE11=さようなら
EXTD=YEAR: 1973
EXTT0=
EXTT1=
EXTT2=
EXTT3=
EXTT4=
EXTT5=
EXTT6=
EXTT7=
EXTT8=
EXTT9=
EXTT10=
EXTT11=
PLAYORDER=
